# AST/ASF file generated using VICON BodyLanguage
# -----------------------------------------------
:version 1.10
:name VICON
:units
  mass 1.0
  length 0.45
  angle deg
:documentation
   .ast/.asf automatically generated from VICON data using
   VICON BodyBuilder and BodyLanguage model FoxedUp or BRILLIANT.MOD
:root
   order TX TY TZ RX RY RZ
   axis XYZ
   position 0 0 0  
   orientation 0 0 0 
:bonedata
  begin
     id 1 
     name lhipjoint
     direction 0.561145 -0.797705 0.220866 
     length 2.46425 
     axis 0 0 0  XYZ
  end
  begin
     id 2 
     name lfemur
     direction 0.34202 -0.939693 0  
     length 7.95556  
     axis 0 0 20  XYZ
    dof rx ry rz
    limits (-160.0 20.0)
           (-70.0 70.0)
           (-60.0 70.0)
  end
  begin
     id 3 
     name ltibia
     direction 0.34202 -0.939693 0   
     length 7.9832   
     axis 0 0 20   XYZ
    dof rx
    limits (-10.0 170.0)
  end
  begin
     id 4 
     name lfoot
     direction 0.0723927 -0.198897 0.977343   
     length 2.23085   
     axis -90 7.62852e-016 20   XYZ
    dof rx rz
    limits (-45.0 90.0)
           (-70.0 20.0)
  end
  begin
     id 5 
     name ltoes
     direction 1.53826e-011 -4.21988e-011 1   
     length 1.12127   
     axis -90 7.62852e-016 20   XYZ
    dof rx
    limits (-90.0 20.0)
  end
  begin
     id 6 
     name rhipjoint
     direction -0.610499 -0.763299 0.21134   
     length 2.57533  
     axis 0 0 0  XYZ 
  end
  begin
     id 7 
     name rfemur
     direction -0.34202 -0.939693 0   
     length 8.65257   
     axis 0 0 -20   XYZ
    dof rx ry rz
    limits (-160.0 20.0)
           (-70.0 70.0)
           (-70.0 60.0)
  end
  begin
     id 8 
     name rtibia
     direction -0.342021 -0.939692 0   
     length 7.37807   
     axis 0 0 -20   XYZ
    dof rx
    limits (-10.0 170.0)
 end
 begin
     id 9 
     name rfoot
     direction -0.0239304 -0.0543852 0.998233   
     length 1.87018  
     axis -90 -7.62852e-016 -20   XYZ
    dof rx rz
    limits (-45.0 90.0)
           (-20.0 70.0)
  end
  begin
     id 10 
     name rtoes
     direction -1.53584e-011 -4.2242e-011 1   
     length 0.951568   
     axis -90 -7.62852e-016 -20   XYZ
    dof rx
    limits (-90.0 20.0)
  end
  begin
     id 11 
     name lowerback
     direction 0.00322089 0.999033 0.0438587   
     length 2.07568   
     axis 0 0 0   XYZ
    dof rx ry rz
    limits (-20.0 45.0)
           (-30.0 30.0)
           (-30.0 30.0)
  end
  begin
     id 12 
     name upperback
     direction -0.00321932 0.999732 -0.0229403   
     length 2.06253   
     axis 0 0 0   XYZ
    dof rx ry rz
    limits (-20.0 45.0)
           (-30.0 30.0)
           (-30.0 30.0)
  end
  begin
     id 13 
     name thorax
     direction -0.00537537 0.998955 -0.0453918   
     length 2.06975   
     axis 0 0 0   XYZ
    dof rx ry rz
    limits (-20.0 45.0)
           (-30.0 30.0)
           (-30.0 30.0)
  end
  begin
     id 14 
     name lowerneck
     direction -0.00013604 0.994111 0.108363   
     length 1.50836   
     axis 0 0 0   XYZ
    dof rx ry rz
    limits (-20.0 45.0)
           (-30.0 30.0)
           (-30.0 30.0)
  end
  begin
     id 15 
     name upperneck
     direction 0.0397262 0.983859 -0.174482   
     length 1.53037   
     axis 0 0 0   XYZ
    dof rx ry rz
    limits (-20.0 45.0)
           (-30.0 30.0)
           (-30.0 30.0)
  end
  begin
     id 16
     name head
     direction 0.0109991 0.997082 -0.0755378  
     length 1.56928  
     axis 0 0 0   XYZ
    dof rx ry rz
    limits (-20.0 45.0)
           (-30.0 30.0)
           (-30.0 30.0)
  end
  begin
     id 17 
     name lclavicle
     direction 0.964749 0.254 -0.068874  
     length 3.26503  
     axis 0 0 0   XYZ
    dof ry rz
    limits (-20.0 10.0)
           (0.0 20.0)
  end
  begin
     id 18 
     name lhumerus
     direction 1 -4.48941e-011 -2.05079e-027   
     length 5.68236   
     axis 180 -30 -90   XYZ
    dof rx ry rz
    limits (-60.0 90.0)
           (-90.0 90.0)
           (-90.0 90.0)
  end
  begin
     id 19
     name lradius
     direction 1 -4.48956e-011 6.2882e-027   
     length 3.17112   
     axis 180 -30 -90   XYZ
    dof rx
    limits (-10.0 170.0)
  end
  begin
     id 20
     name lwrist
     direction 1 -4.49014e-011 1.73219e-026   
     length 1.58556   
     axis -1.04724e-014 90 90   XYZ
    dof ry
    limits (-180.0 0.0)
 end
  begin
     id 21 
     name lhand
     direction 1 -4.49312e-011 3.46438e-026   
     length 0.632691   
     axis -2.21057e-014 90 90   XYZ
    dof rx rz
    limits (-90.0 90.0)
           (-45.0 45.0)
  end
  begin
     id 22 
     name lfingers
     direction 1 -4.48894e-011 6.92876e-026   
     length 0.510091   
     axis -4.42114e-014 90 90   XYZ
    dof rx
    limits (0.0 90.0)
  end
  begin
     id 23
     name lthumb
     direction 0.707107 -6.34705e-011 0.707107   
     length 0.732392   
     axis -90 45 2.85299e-015   XYZ
    dof rx rz
    limits (-45.0 45.0)
           (-45.0 45.0)
  end
  begin
     id 24 
     name rclavicle
     direction -0.954374 0.280496 -0.102435   
     length 3.25419  
     axis 0 0 0   XYZ 
    dof ry rz
    limits (-10.0 20.0)
           (-20.0 0.0)
  end
  begin
     id 25 
     name rhumerus
     direction -1 -4.48994e-011 -1.07204e-017  
     length 5.8712   
     axis 180 30 90   XYZ
    dof rx ry rz
    limits (-90.0 60.0)
           (-90.0 90.0)
           (-90.0 90.0)
  end
  begin
     id 26 
     name rradius
     direction -1 -4.48972e-011 5.89292e-027   
     length 3.37589   
     axis 180 30 90   XYZ
    dof rx
    limits (-10.0 170.0)
  end
  begin
     id 27 
     name rwrist
     direction -1 -4.48942e-011 1.73219e-026   
     length 1.68794   
     axis -1.04724e-014 -90 -90   XYZ
    dof ry
    limits (-180.0 0.0)
  end
  begin
     id 28
     name rhand
     direction -1 -4.48514e-011 3.46438e-026   
     length 0.603257   
     axis -2.21057e-014 -90 -90   XYZ
    dof rx rz
    limits (-90.0 90.0)
           (-45.0 45.0)
  end
  begin
     id 29
     name rfingers
     direction -1 -4.50028e-011 6.92876e-026   
     length 0.486362   
     axis -4.42114e-014 -90 -90   XYZ
    dof rx
    limits (0.0 90.0)
  end
  begin
     id 30
     name rthumb
     direction -0.707107 -6.34926e-011 0.707107   
     length 0.698321   
     axis -90 -45 -2.85299e-015   XYZ
    dof rx rz
    limits (-45.0 45.0)
           (-45.0 45.0)
  end
:hierarchy
  begin
    root lhipjoint rhipjoint lowerback
    lhipjoint lfemur
    lfemur ltibia
    ltibia lfoot
    lfoot ltoes
    rhipjoint rfemur
    rfemur rtibia
    rtibia rfoot
    rfoot rtoes
    lowerback upperback
    upperback thorax
    thorax lowerneck lclavicle rclavicle
    lowerneck upperneck
    upperneck head
    lclavicle lhumerus
    lhumerus lradius
    lradius lwrist
    lwrist lhand lthumb
    lhand lfingers
    rclavicle rhumerus
    rhumerus rradius
    rradius rwrist
    rwrist rhand rthumb
    rhand rfingers
  end

#!OML:ASF I:\Segmentation\Patient Classification 1\Patient 1\Session 1\Patient1.ASF
:FULLY-SPECIFIED
:DEGREES
300
root 17.0835 18.4359 10.1711 7.57834 80.5028 -1.57125
lowerback -9.51361 0.939633 -3.9394
upperback 1.69069 1.82695 -1.21425
thorax 7.04963 0.764626 1.21994
lowerneck -19.1006 1.85024 -0.646365
upperneck 16.2054 3.08959 -1.69727
head 8.19003 1.25519 -0.0767761
rclavicle -3.11098e-014 1.90833e-014
rhumerus -34.8669 -17.0877 -75.151
rradius 22.738
rwrist 32.1794
rhand -10.7167 27.3897
rfingers 7.12502
rthumb 15.2934 -2.02489
lclavicle -3.11098e-014 1.90833e-014
lhumerus -28.1755 -3.01302 85.9034
lradius 30.4268
lwrist 10.0546
lhand -14.7208 35.5448
lfingers 7.12502
lthumb 11.4341 65.213
rfemur -9.1115 0.71154 15.9756
rtibia 52.0339
rfoot 13.6076 -1.40903
rtoes -2.12036
lfemur -28.5474 5.54376 -27.0185
ltibia 25.2682
lfoot -19.5157 15.8349
ltoes 5.10536
301
root 17.1772 18.4426 10.1522 7.43429 80.4531 -1.75754
lowerback -9.43339 0.884766 -3.9071
upperback 1.73154 1.7414 -1.14606
thorax 7.04994 0.72177 1.25919
lowerneck -19.1199 2.00024 -0.552458
upperneck 16.0968 3.31987 -1.9651
head 8.16524 1.34329 -0.153222
rclavicle 4.77083e-015 7.15625e-015
rhumerus -35.1113 -17.9977 -74.468
rradius 22.2922
rwrist 33.6163
rhand -10.1363 27.2419
rfingers 7.12502
rthumb 15.8524 -2.12911
lclavicle 4.77083e-015 7.15625e-015
lhumerus -27.9841 -3.53669 86.0494
lradius 31.009
lwrist 10.4703
lhand -14.7728 35.453
lfingers 7.12502
lthumb 11.3838 65.124
rfemur -10.3123 0.648065 15.8481
rtibia 53.5074
rfoot 12.1717 -1.72039
rtoes -2.53796
lfemur -28.2785 5.47424 -27.0474
ltibia 25.3365
lfoot -19.8699 15.6484
ltoes 5.09238
302
root 17.2691 18.4484 10.1311 7.10745 80.4605 -2.12799
lowerback -9.35013 0.819861 -3.81187
upperback 1.77673 1.63462 -1.07414
thorax 7.05566 0.670829 1.26396
lowerneck -19.1304 2.14722 -0.458906
upperneck 16.0045 3.54148 -2.20937
head 8.14473 1.42981 -0.222703
rclavicle -2.98177e-016 1.11319e-014
rhumerus -35.3386 -18.695 -73.901
rradius 21.9528
rwrist 34.6452
rhand -9.5743 27.0766
rfingers 7.12502
rthumb 16.3936 -2.25064
lclavicle -2.98177e-016 1.11319e-014
lhumerus -27.7596 -4.07838 86.1838
lradius 31.5852
lwrist 10.8544
lhand -14.8209 35.401
lfingers 7.12502
lthumb 11.3375 65.0746
rfemur -11.4956 0.561204 15.7696
rtibia 54.8207
rfoot 10.6768 -2.0905
rtoes -3.03025
lfemur -28.0235 5.40826 -27.0595
ltibia 25.4163
lfoot -20.1962 15.4324
ltoes 4.76145
303
root 17.3596 18.4535 10.1079 6.65903 80.5174 -2.6211
lowerback -9.26649 0.741747 -3.66662
upperback 1.82052 1.50422 -1.001
thorax 7.06176 0.610391 1.23849
lowerneck -19.106 2.29491 -0.361525
upperneck 15.9113 3.76076 -2.44529
head 8.11858 1.51693 -0.290579
rclavicle 1.33186e-014 7.95139e-016
rhumerus -35.5362 -19.1508 -73.4694
rradius 21.6995
rwrist 35.2413
rhand -9.05737 26.8938
rfingers 7.12502
rthumb 16.8912 -2.39165
lclavicle 1.33186e-014 7.95139e-016
lhumerus -27.5279 -4.60544 86.2988
lradius 32.1737
lwrist 11.185
lhand -14.8648 35.3771
lfingers 7.12502
lthumb 11.2952 65.0529
rfemur -12.6591 0.461046 15.724
rtibia 55.9676
rfoot 9.20284 -2.50307
rtoes -3.31507
lfemur -27.7752 5.33759 -27.0633
ltibia 25.4951
lfoot -20.5132 15.2176
ltoes 4.18581
304
root 17.4495 18.4582 10.0842 6.15341 80.6238 -3.1526
lowerback -9.16408 0.643785 -3.51167
upperback 1.86086 1.34518 -0.924096
thorax 7.05448 0.536587 1.20705
lowerneck -19.0278 2.45043 -0.24428
upperneck 15.8088 3.98781 -2.69844
head 8.08174 1.60824 -0.367005
rclavicle -6.85807e-015 1.39149e-014
rhumerus -35.7044 -19.3668 -73.17
rradius 21.5234
rwrist 35.457
rhand -8.63724 26.7049
rfingers 7.12502
rthumb 17.2956 -2.54553
lclavicle -6.85807e-015 1.39149e-014
lhumerus -27.3057 -5.08321 86.3852
lradius 32.7512
lwrist 11.4372
lhand -14.887 35.3633
lfingers 7.12502
lthumb 11.2737 65.0403
rfemur -13.7765 0.353964 15.6975
rtibia 56.9436
rfoot 7.80739 -2.92774
rtoes -3.19548
lfemur -27.5073 5.26888 -27.0709
ltibia 25.5639
lfoot -20.7995 15.0107
ltoes 3.53428
305
root 17.5392 18.462 10.0611 5.61985 80.7824 -3.67747
lowerback -9.02749 0.524646 -3.37276
upperback 1.89614 1.15802 -0.840926
thorax 7.02261 0.448718 1.18673
lowerneck -18.9097 2.61651 -0.108618
upperneck 15.7296 4.22792 -2.96555
head 8.04774 1.70601 -0.449718
rclavicle 1.23246e-014 -1.19271e-015
rhumerus -35.8549 -19.3638 -72.9848
rradius 21.4214
rwrist 35.3545
rhand -8.38958 26.5395
rfingers 7.12502
rthumb 17.534 -2.68978
lclavicle 1.23246e-014 -1.19271e-015
lhumerus -27.0911 -5.50235 86.4425
lradius 33.2755
lwrist 11.6003
lhand -14.877 35.3402
lfingers 7.12502
lthumb 11.2834 65.0167
rfemur -14.8252 0.240385 15.6833
rtibia 57.7451
rfoot 6.48474 -3.32078
rtoes -2.79886
lfemur -27.2006 5.20847 -27.0887
ltibia 25.6196
lfoot -21.0329 14.7915
ltoes 2.95441
306
root 17.6287 18.4645 10.0387 5.02528 80.9928 -4.23071
lowerback -8.86241 0.394181 -3.24236
upperback 1.92786 0.955435 -0.750998
thorax 6.97066 0.353113 1.17615
lowerneck -18.7748 2.78284 0.0268423
upperneck 15.7036 4.46991 -3.22568
head 8.02959 1.80522 -0.529738
rclavicle -4.77083e-015 -2.34566e-014
rhumerus -36.0143 -19.2065 -72.877
rradius 21.4129
rwrist 35.0056
rhand -8.33632 26.4203
rfingers 7.12502
rthumb 17.5852 -2.8044
lclavicle -4.77083e-015 -2.34566e-014
lhumerus -26.8635 -5.88849 86.4844
lradius 33.722
lwrist 11.6817
lhand -14.8284 35.2853
lfingers 7.12502
lthumb 11.3303 64.9592
rfemur -15.8022 0.124527 15.6863
rtibia 58.3694
rfoot 5.20593 -3.64064
rtoes -2.31246
lfemur -26.8555 5.14671 -27.1078
ltibia 25.665
lfoot -21.2169 14.5337
ltoes 2.56047
307
root 17.718 18.4659 10.0169 4.3508 81.2461 -4.83783
lowerback -8.6869 0.264246 -3.1145
upperback 1.96591 0.753731 -0.654562
thorax 6.91903 0.257538 1.17454
lowerneck -18.6421 2.93405 0.144591
upperneck 15.7319 4.69482 -3.46262
head 8.02965 1.89705 -0.600995
rclavicle 1.38155e-014 1.98785e-015
rhumerus -36.2019 -18.9794 -72.8078
rradius 21.5268
rwrist 34.504
rhand -8.42934 26.3516
rfingers 7.12502
rthumb 17.4957 -2.88113
lclavicle 1.38155e-014 1.98785e-015
lhumerus -26.592 -6.27737 86.5271
lradius 34.0923
lwrist 11.7117
lhand -14.739 35.1876
lfingers 7.12502
lthumb 11.4164 64.8568
rfemur -16.713 0.0201687 15.7096
rtibia 58.8176
rfoot 3.9781 -3.87525
rtoes -1.71848
lfemur -26.48 5.07514 -27.1203
ltibia 25.7084
lfoot -21.3697 14.2264
ltoes 2.35478
308
root 17.8073 18.4662 9.99538 3.68981 81.5263 -5.4084
lowerback -8.51787 0.138934 -3.00451
upperback 2.02051 0.56134 -0.555578
thorax 6.88798 0.165224 1.18776
lowerneck -18.529 3.06343 0.235645
upperneck 15.8104 4.89421 -3.66766
head 8.04865 1.97745 -0.660001
rclavicle -2.52457e-014 8.34896e-015
rhumerus -36.4121 -18.7399 -72.7537
rradius 21.7585
rwrist 33.9301
rhand -8.6312 26.3406
rfingers 7.12502
rthumb 17.3014 -2.90928
lclavicle -2.52457e-014 8.34896e-015
lhumerus -26.2536 -6.68981 86.5789
lradius 34.3968
lwrist 11.739
lhand -14.6248 35.0659
lfingers 7.12502
lthumb 11.5266 64.7289
rfemur -17.5637 -0.059472 15.7331
rtibia 59.0961
rfoot 2.82574 -4.04664
rtoes -0.925869
lfemur -26.0815 4.98302 -27.1377
ltibia 25.7596
lfoot -21.5169 13.8929
ltoes 2.26047
309
root 17.8968 18.4654 9.97364 3.17583 81.8258 -5.82265
lowerback -8.37241 0.0150505 -2.92549
upperback 2.08652 0.376403 -0.46251
thorax 6.88216 0.0749777 1.21398
lowerneck -18.4184 3.17294 0.31382
upperneck 15.9173 5.06833 -3.85317
head 8.07672 2.04664 -0.713406
rclavicle 4.65156e-014 5.96354e-015
rhumerus -36.6327 -18.5014 -72.7114
rradius 22.0785
rwrist 33.3079
rhand -8.9089 26.3876
rfingers 7.12502
rthumb 17.0341 -2.88552
lclavicle 4.65156e-014 5.96354e-015
lhumerus -25.8533 -7.11236 86.6309
lradius 34.6464
lwrist 11.7845
lhand -14.5046 34.9531
lfingers 7.12502
lthumb 11.6425 64.6097
rfemur -18.372 -0.117265 15.7293
rtibia 59.2134
rfoot 1.74311 -4.18188
rtoes -0.0115804
lfemur -25.6807 4.85442 -27.1801
ltibia 25.8261
lfoot -21.6618 13.5884
ltoes 2.13712
